HIERARCHY
ROOT newVegas:Hips
{
	OFFSET 0.000000 96.479958 0.000000
	CHANNELS 6 Xposition Yposition Zposition Xrotation Yrotation Zrotation
	JOINT newVegas:Pelvis
	{
		OFFSET 0.000000 0.000000 0.000000
		CHANNELS 3 Xrotation Yrotation Zrotation
		JOINT newVegas:LeftUpLeg
		{
			OFFSET 18.735201 -5.666702 -4.541200
			CHANNELS 3 Xrotation Yrotation Zrotation
			JOINT newVegas:LeftLeg
			{
				OFFSET -0.021200 -31.938179 0.493100
				CHANNELS 3 Xrotation Yrotation Zrotation
				JOINT newVegas:LeftFoot
				{
					OFFSET 0.021200 -31.938179 -4.336299
					CHANNELS 3 Xrotation Yrotation Zrotation
					JOINT newVegas:LeftToeBase
					{
						OFFSET 0.943001 -26.722000 15.023500
						CHANNELS 3 Xrotation Yrotation Zrotation
						End Site
						{
							OFFSET 0.000000 30.670183 0.000000
						}
					}
				}
				JOINT newVegas:Left_PantLeg
				{
					OFFSET 0.663870 -9.044666 -1.108900
					CHANNELS 3 Xrotation Yrotation Zrotation
					End Site
					{
						OFFSET 1.415995 20.635357 0.000000
					}
				}
			}
		}
		JOINT newVegas:RightUpLeg
		{
			OFFSET -18.735201 -5.666702 -4.541200
			CHANNELS 3 Xrotation Yrotation Zrotation
			JOINT newVegas:RightLeg
			{
				OFFSET 0.018946 -31.938133 0.493100
				CHANNELS 3 Xrotation Yrotation Zrotation
				JOINT newVegas:RightFoot
				{
					OFFSET -0.018946 -31.938126 -4.336299
					CHANNELS 3 Xrotation Yrotation Zrotation
					JOINT newVegas:RightToeBase
					{
						OFFSET -0.943001 -26.722004 15.023500
						CHANNELS 3 Xrotation Yrotation Zrotation
						End Site
						{
							OFFSET 0.000000 30.670187 0.000000
						}
					}
				}
				JOINT newVegas:Right_PantLeg
				{
					OFFSET -0.661674 -9.044716 -1.108900
					CHANNELS 3 Xrotation Yrotation Zrotation
					End Site
					{
						OFFSET -1.415958 20.635269 0.000000
					}
				}
			}
		}
	}
	JOINT newVegas:Spine
	{
		OFFSET 0.000000 10.199997 -0.299500
		CHANNELS 3 Xrotation Yrotation Zrotation
		JOINT newVegas:Spine1
		{
			OFFSET 0.000000 11.900002 -1.516600
			CHANNELS 3 Xrotation Yrotation Zrotation
			JOINT newVegas:Spine2
			{
				OFFSET 0.000000 13.600006 -2.842500
				CHANNELS 3 Xrotation Yrotation Zrotation
				JOINT newVegas:Neck
				{
					OFFSET 0.000000 9.624100 -2.890100
					CHANNELS 3 Xrotation Yrotation Zrotation
					JOINT newVegas:Head
					{
						OFFSET 0.000000 14.068802 -1.351900
						CHANNELS 3 Xrotation Yrotation Zrotation
						JOINT newVegas:Hair_Back
						{
							OFFSET 0.000000 3.231903 -17.524799
							CHANNELS 3 Xrotation Yrotation Zrotation
							End Site
							{
								OFFSET 0.000000 19.849884 0.000000
							}
						}
						JOINT newVegas:Hair_Front
						{
							OFFSET 0.000000 31.260406 4.573800
							CHANNELS 3 Xrotation Yrotation Zrotation
							JOINT newVegas:Hair_Front1
							{
								OFFSET 0.000000 2.284103 11.993300
								CHANNELS 3 Xrotation Yrotation Zrotation
								JOINT newVegas:Hair_Front2
								{
									OFFSET 0.000000 2.284103 11.993300
									CHANNELS 3 Xrotation Yrotation Zrotation
									End Site
									{
										OFFSET 0.000000 12.208862 0.000000
									}
								}
							}
						}
						JOINT newVegas:Jowel
						{
							OFFSET 0.000000 -7.458206 6.864100
							CHANNELS 3 Xrotation Yrotation Zrotation
							End Site
							{
								OFFSET 0.000000 19.849884 0.000000
							}
						}
					}
				}
				JOINT newVegas:LeftShoulder
				{
					OFFSET 15.263000 10.923401 -0.547700
					CHANNELS 3 Xrotation Yrotation Zrotation
					JOINT newVegas:LeftArm
					{
						OFFSET 25.438599 -2.830597 -13.032500
						CHANNELS 3 Xrotation Yrotation Zrotation
						JOINT newVegas:LeftForeArm
						{
							OFFSET 29.960503 0.000000 0.000000
							CHANNELS 3 Xrotation Yrotation Zrotation
							JOINT newVegas:LeftHand
							{
								OFFSET 27.849251 0.000000 0.000000
								CHANNELS 3 Xrotation Yrotation Zrotation
								JOINT newVegas:LeftHandThumb1
								{
									OFFSET 4.487587 -3.305161 6.305391
									CHANNELS 3 Xrotation Yrotation Zrotation
									JOINT newVegas:LeftHandThumb2
									{
										OFFSET 5.480453 -3.164139 3.164143
										CHANNELS 3 Xrotation Yrotation Zrotation
										JOINT newVegas:LeftHandThumb3
										{
											OFFSET 5.159721 -2.978973 2.978967
											CHANNELS 3 Xrotation Yrotation Zrotation
											End Site
											{
												OFFSET 2.494507 5.926697 1.738678
											}
										}
									}
								}
								JOINT newVegas:LeftHandIndex1
								{
									OFFSET 18.578728 -0.527832 5.208049
									CHANNELS 3 Xrotation Yrotation Zrotation
									JOINT newVegas:LeftHandIndex2
									{
										OFFSET 3.192009 0.000000 0.000000
										CHANNELS 3 Xrotation Yrotation Zrotation
										JOINT newVegas:LeftHandIndex3
										{
											OFFSET 3.835129 0.000000 0.000000
											CHANNELS 3 Xrotation Yrotation Zrotation
											End Site
											{
												OFFSET -0.034599 3.816971 0.371180
											}
										}
									}
								}
								JOINT newVegas:LeftHandMiddle1
								{
									OFFSET 18.476105 0.000000 0.000000
									CHANNELS 3 Xrotation Yrotation Zrotation
									JOINT newVegas:LeftHandMiddle2
									{
										OFFSET 3.324875 0.000000 0.000000
										CHANNELS 3 Xrotation Yrotation Zrotation
										JOINT newVegas:LeftHandMiddle3
										{
											OFFSET 4.596550 0.000000 0.000000
											CHANNELS 3 Xrotation Yrotation Zrotation
											End Site
											{
												OFFSET 0.057701 4.578827 0.399218
											}
										}
									}
								}
								JOINT newVegas:LeftHandRing1
								{
									OFFSET 17.732719 0.121887 -4.201567
									CHANNELS 3 Xrotation Yrotation Zrotation
									JOINT newVegas:LeftHandRing2
									{
										OFFSET 2.733170 0.000000 0.000000
										CHANNELS 3 Xrotation Yrotation Zrotation
										JOINT newVegas:LeftHandRing3
										{
											OFFSET 3.178268 0.000000 0.000000
											CHANNELS 3 Xrotation Yrotation Zrotation
											End Site
											{
												OFFSET 0.119102 3.170624 0.185394
											}
										}
									}
								}
								JOINT newVegas:LeftHandPinky1
								{
									OFFSET 15.989624 -0.606689 -7.535461
									CHANNELS 3 Xrotation Yrotation Zrotation
									JOINT newVegas:LeftHandPinky2
									{
										OFFSET 2.538986 0.000000 0.000000
										CHANNELS 3 Xrotation Yrotation Zrotation
										JOINT newVegas:LeftHandPinky3
										{
											OFFSET 2.593102 0.000000 0.000000
											CHANNELS 3 Xrotation Yrotation Zrotation
											End Site
											{
												OFFSET -0.150902 2.584198 0.152708
											}
										}
									}
								}
							}
							JOINT newVegas:Left_Sleeve
							{
								OFFSET 0.267448 -0.649796 0.577675
								CHANNELS 3 Xrotation Yrotation Zrotation
								End Site
								{
									OFFSET 0.000000 15.991241 0.000000
								}
							}
							JOINT newVegas:Left_CapeC
							{
								OFFSET 15.715958 -8.608795 -6.935905
								CHANNELS 3 Xrotation Yrotation Zrotation
								JOINT newVegas:Left_CapeC1
								{
									OFFSET 0.000000 -8.688499 0.000000
									CHANNELS 3 Xrotation Yrotation Zrotation
									End Site
									{
										OFFSET 0.000000 8.688499 0.000000
									}
								}
							}
						}
						JOINT newVegas:Left_CapeB
						{
							OFFSET 26.118385 -8.608795 -7.079235
							CHANNELS 3 Xrotation Yrotation Zrotation
							JOINT newVegas:Left_CapeB1
							{
								OFFSET 0.000000 -8.688499 0.000000
								CHANNELS 3 Xrotation Yrotation Zrotation
								End Site
								{
									OFFSET 0.000000 8.688499 0.000000
								}
							}
						}
						JOINT newVegas:Left_CapeA
						{
							OFFSET 5.115639 -8.608795 -10.395809
							CHANNELS 3 Xrotation Yrotation Zrotation
							JOINT newVegas:Left_CapeA1
							{
								OFFSET 0.000000 -8.688499 0.000000
								CHANNELS 3 Xrotation Yrotation Zrotation
								End Site
								{
									OFFSET 0.000000 8.688499 0.000000
								}
							}
						}
					}
				}
				JOINT newVegas:RightShoulder
				{
					OFFSET -15.263000 10.923401 -0.547700
					CHANNELS 3 Xrotation Yrotation Zrotation
					JOINT newVegas:RightArm
					{
						OFFSET -25.438599 -2.830597 -13.032500
						CHANNELS 3 Xrotation Yrotation Zrotation
						JOINT newVegas:RightForeArm
						{
							OFFSET -29.960503 0.000000 0.000000
							CHANNELS 3 Xrotation Yrotation Zrotation
							JOINT newVegas:RightHand
							{
								OFFSET -27.849251 0.000000 0.000000
								CHANNELS 3 Xrotation Yrotation Zrotation
								JOINT newVegas:RightHandThumb1
								{
									OFFSET -4.487587 -3.305161 6.305391
									CHANNELS 3 Xrotation Yrotation Zrotation
									JOINT newVegas:RightHandThumb2
									{
										OFFSET -5.480453 -3.164139 3.164143
										CHANNELS 3 Xrotation Yrotation Zrotation
										JOINT newVegas:RightHandThumb3
										{
											OFFSET -5.159721 -2.978973 2.978967
											CHANNELS 3 Xrotation Yrotation Zrotation
											End Site
											{
												OFFSET -2.494507 5.926697 1.738678
											}
										}
									}
								}
								JOINT newVegas:RightHandIndex1
								{
									OFFSET -18.578728 -0.527832 5.208049
									CHANNELS 3 Xrotation Yrotation Zrotation
									JOINT newVegas:RightHandIndex2
									{
										OFFSET -3.192009 0.000000 0.000000
										CHANNELS 3 Xrotation Yrotation Zrotation
										JOINT newVegas:RightHandIndex3
										{
											OFFSET -3.835129 0.000000 0.000000
											CHANNELS 3 Xrotation Yrotation Zrotation
											End Site
											{
												OFFSET 0.034599 3.816971 0.371180
											}
										}
									}
								}
								JOINT newVegas:RightHandMiddle1
								{
									OFFSET -18.476105 0.000000 0.000000
									CHANNELS 3 Xrotation Yrotation Zrotation
									JOINT newVegas:RightHandMiddle2
									{
										OFFSET -3.324875 0.000000 0.000000
										CHANNELS 3 Xrotation Yrotation Zrotation
										JOINT newVegas:RightHandMiddle3
										{
											OFFSET -4.596550 0.000000 0.000000
											CHANNELS 3 Xrotation Yrotation Zrotation
											End Site
											{
												OFFSET -0.057701 4.578827 0.399218
											}
										}
									}
								}
								JOINT newVegas:RightHandRing1
								{
									OFFSET -17.732719 0.121887 -4.201567
									CHANNELS 3 Xrotation Yrotation Zrotation
									JOINT newVegas:RightHandRing2
									{
										OFFSET -2.733170 0.000000 0.000000
										CHANNELS 3 Xrotation Yrotation Zrotation
										JOINT newVegas:RightHandRing3
										{
											OFFSET -3.178268 0.000000 0.000000
											CHANNELS 3 Xrotation Yrotation Zrotation
											End Site
											{
												OFFSET -0.119102 3.170624 0.185394
											}
										}
									}
								}
								JOINT newVegas:RightHandPinky1
								{
									OFFSET -15.989624 -0.606689 -7.535461
									CHANNELS 3 Xrotation Yrotation Zrotation
									JOINT newVegas:RightHandPinky2
									{
										OFFSET -2.538986 0.000000 0.000000
										CHANNELS 3 Xrotation Yrotation Zrotation
										JOINT newVegas:RightHandPinky3
										{
											OFFSET -2.593102 0.000000 0.000000
											CHANNELS 3 Xrotation Yrotation Zrotation
											End Site
											{
												OFFSET 0.150902 2.584198 0.152708
											}
										}
									}
								}
							}
							JOINT newVegas:Right_CapeC
							{
								OFFSET -15.715958 -8.608795 -6.935905
								CHANNELS 3 Xrotation Yrotation Zrotation
								JOINT newVegas:Right_CapeC1
								{
									OFFSET 0.000000 -8.688499 0.000000
									CHANNELS 3 Xrotation Yrotation Zrotation
									End Site
									{
										OFFSET 0.000000 8.688499 0.000000
									}
								}
							}
							JOINT newVegas:Right_Sleeve
							{
								OFFSET -0.267448 -0.649994 0.577675
								CHANNELS 3 Xrotation Yrotation Zrotation
								End Site
								{
									OFFSET 0.000000 15.991302 0.000000
								}
							}
						}
						JOINT newVegas:Right_CapeA
						{
							OFFSET -5.115540 -8.608795 -10.395824
							CHANNELS 3 Xrotation Yrotation Zrotation
							JOINT newVegas:Right_CapeA1
							{
								OFFSET 0.000000 -8.688499 0.000000
								CHANNELS 3 Xrotation Yrotation Zrotation
								End Site
								{
									OFFSET 0.000000 8.688499 0.000000
								}
							}
						}
						JOINT newVegas:Right_CapeB
						{
							OFFSET -26.118187 -8.608795 -7.079266
							CHANNELS 3 Xrotation Yrotation Zrotation
							JOINT newVegas:Right_CapeB1
							{
								OFFSET 0.000000 -8.688499 0.000000
								CHANNELS 3 Xrotation Yrotation Zrotation
								End Site
								{
									OFFSET 0.000000 8.688499 0.000000
								}
							}
						}
					}
				}
				JOINT newVegas:Left_Collar
				{
					OFFSET 18.625099 8.655502 8.828100
					CHANNELS 3 Xrotation Yrotation Zrotation
					JOINT newVegas:Left_Collar1
					{
						OFFSET 14.783401 10.540405 -1.259500
						CHANNELS 3 Xrotation Yrotation Zrotation
						End Site
						{
							OFFSET 0.000000 18.199875 0.000000
						}
					}
				}
				JOINT newVegas:Collar_Back
				{
					OFFSET 0.000000 15.630707 -20.132601
					CHANNELS 3 Xrotation Yrotation Zrotation
					End Site
					{
						OFFSET 0.000000 22.523010 0.000000
					}
				}
				JOINT newVegas:Left_Peck
				{
					OFFSET 17.239599 -5.132599 25.482599
					CHANNELS 3 Xrotation Yrotation Zrotation
					End Site
					{
						OFFSET 0.000000 22.523010 0.000000
					}
				}
				JOINT newVegas:Right_Peck
				{
					OFFSET -17.239599 -5.132202 25.482599
					CHANNELS 3 Xrotation Yrotation Zrotation
					End Site
					{
						OFFSET 0.000000 22.523010 0.000000
					}
				}
				JOINT newVegas:Right_Collar
				{
					OFFSET -18.625099 8.655792 8.828100
					CHANNELS 3 Xrotation Yrotation Zrotation
					JOINT newVegas:Right_Collar1
					{
						OFFSET -14.783401 10.539993 -1.259500
						CHANNELS 3 Xrotation Yrotation Zrotation
						End Site
						{
							OFFSET 0.000000 18.199631 0.000000
						}
					}
				}
			}
		}
		JOINT newVegas:Belly
		{
			OFFSET 0.000000 -6.540398 9.014299
			CHANNELS 3 Xrotation Yrotation Zrotation
			End Site
			{
				OFFSET 0.000000 11.566666 0.000000
			}
		}
	}
	JOINT newVegas:ElvisFacialAnim_Joint
	{
		OFFSET 1.000000 -95.330101 -8.825800
		CHANNELS 3 Xrotation Yrotation Zrotation
		End Site
		{
			OFFSET 0.000000 35.315800 0.000000
		}
	}
}
MOTION
Frames: 4
Frame Time: 0.033333
-2.765179 46.099617 7.815109 14.590309 -73.659902 14.069925 0.000000 -0.000000 0.000000 -68.535143 -34.401610 60.710717 80.408054 -4.923451 5.217358 20.557900 -4.718802 -44.129856 0.000000 -0.000001 -0.000000 -0.000001 -0.000002 -0.000002 -125.195250 14.618528 -20.411149 144.540436 16.106674 0.333243 2.139468 -1.464945 -4.451659 0.000001 -0.000000 0.000000 0.000002 -0.000000 0.000000 15.376036 -10.822994 -10.345806 0.587375 -5.666520 -4.178302 0.671977 -5.700193 -4.072429 0.698844 2.876167 2.121671 0.698863 2.876146 2.121671 -0.000001 -0.000000 0.000000 0.698914 2.876175 2.121673 0.698735 2.876134 2.121683 -0.000001 -0.000000 0.000000 -0.000001 -0.000000 0.000000 11.207990 -44.655309 43.466521 -96.230221 11.056411 -37.136538 -63.775566 -40.899671 -53.053197 -5.215037 -26.497084 -19.445352 17.227644 17.613472 -11.396940 17.091206 14.422368 25.539525 0.000002 -0.000002 -0.000006 0.219069 -1.621417 -97.153929 2.207760 -1.384313 -60.043838 -0.000006 -0.000002 -0.000003 0.577716 1.809799 -112.124980 5.828215 -3.595958 -38.340464 -0.000001 0.000001 -0.000003 -4.289154 9.550782 -109.283191 2.175299 0.917412 -36.752022 -0.000000 0.000003 -0.000006 -7.966909 16.523810 -95.185236 0.018660 0.020251 -66.820212 -0.000001 -0.000002 -0.000001 0.000001 0.000000 -0.000001 0.000001 0.000000 -0.000001 0.000000 0.000001 -0.000001 -0.000001 -0.000001 0.000000 -0.000001 -0.000001 0.000000 -0.000001 -0.000001 0.000000 -0.000001 -0.000001 0.000000 29.916949 37.151817 -65.342466 -71.676565 12.027442 5.977680 40.184619 75.884208 -39.642927 -5.498551 -14.778900 -34.752153 9.347162 2.810556 -11.364510 16.169050 -43.266001 15.843573 0.000003 -0.000001 -0.000002 17.076800 -0.396562 31.924342 -0.204404 -0.284222 112.811571 -0.000002 -0.000004 -0.000003 9.205491 -5.035872 102.738094 0.014972 -0.019181 61.018519 -0.000002 -0.000002 0.000003 5.569139 -8.935208 107.329080 0.547980 -0.005761 41.263703 -0.000003 0.000001 -0.000001 6.511271 -17.148267 98.228031 0.007403 -0.015734 43.845747 0.000001 0.000002 -0.000001 0.000000 0.000001 -0.000000 -0.000002 -0.000000 -0.000000 0.000000 0.000000 0.000000 0.000000 0.000000 -0.000003 0.000000 0.000000 -0.000003 0.000000 0.000000 -0.000003 0.000000 -0.000000 -0.000003 0.000000 -0.000000 0.000000 0.000000 -0.000000 0.000000 0.000000 -0.000000 0.000000 0.000000 -0.000000 0.000000 0.000000 -0.000000 0.000000 0.000000 -0.000000 0.000000 0.000000 -0.000000 0.000000 0.000000 0.000000 0.000001 0.000000 -0.000000 0.000000 
-2.756110 46.101883 7.809547 14.612174 -73.636276 14.083936 -0.000000 -0.000001 0.000000 -68.576417 -34.409253 60.702528 80.378923 -4.926215 5.193026 20.592404 -4.728639 -44.099154 0.000000 0.000001 -0.000000 -0.000000 0.000002 -0.000001 -125.188748 14.588601 -20.403834 144.538510 16.078930 0.319249 2.102696 -1.462815 -4.441389 0.000000 0.000000 -0.000000 0.000002 0.000000 -0.000000 15.373357 -10.823638 -10.348269 0.586379 -5.666270 -4.178221 0.670915 -5.699821 -4.072230 0.698109 2.874139 2.124265 0.698119 2.874168 2.124248 0.000001 -0.000000 0.000001 0.698081 2.874136 2.124270 0.698147 2.874197 2.124248 -0.000000 0.000000 0.000001 0.000001 -0.000000 -0.000001 11.210796 -44.661999 43.481551 -96.008076 10.896643 -37.178062 -63.911016 -40.718999 -53.110748 -5.198390 -26.686960 -19.397621 17.227636 17.613466 -11.396943 17.091206 14.422370 25.539522 0.000001 -0.000003 -0.000003 0.219066 -1.621416 -97.153929 2.207761 -1.384320 -60.043838 -0.000003 -0.000000 -0.000000 0.577717 1.809799 -112.124980 5.828215 -3.595965 -38.340468 0.000000 -0.000001 -0.000002 -4.289153 9.550782 -109.283191 2.175301 0.917411 -36.752025 -0.000000 0.000003 -0.000004 -7.966916 16.523807 -95.185236 0.018660 0.020251 -66.820212 0.000001 0.000002 -0.000002 -0.000002 -0.000000 -0.000001 -0.000002 -0.000000 -0.000001 -0.000003 0.000000 -0.000001 0.000000 0.000001 -0.000000 0.000000 0.000001 -0.000000 0.000000 0.000001 -0.000000 0.000000 0.000001 -0.000000 29.720305 37.107342 -64.985049 -71.682610 12.206493 6.089805 40.759434 75.822900 -40.179903 -5.533931 -14.829893 -34.739138 9.347165 2.810558 -11.364519 16.169045 -43.266007 15.843570 0.000002 0.000002 -0.000002 17.076805 -0.396567 31.924345 -0.204401 -0.284215 112.811564 -0.000004 -0.000001 0.000003 9.205494 -5.035875 102.738094 0.014973 -0.019178 61.018513 -0.000003 -0.000003 0.000006 5.569139 -8.935208 107.329074 0.547982 -0.005760 41.263703 -0.000000 0.000002 -0.000000 6.511278 -17.148269 98.228031 0.007404 -0.015738 43.845751 0.000005 0.000002 -0.000001 -0.000000 -0.000000 -0.000000 -0.000000 -0.000000 -0.000000 -0.000000 -0.000000 0.000000 -0.000000 0.000001 0.000001 -0.000000 0.000001 0.000001 -0.000000 0.000001 0.000001 -0.000000 -0.000000 0.000001 0.000003 0.000000 0.000001 0.000003 0.000000 0.000001 0.000003 0.000000 0.000001 0.000003 0.000000 0.000001 0.000003 0.000000 0.000001 0.000003 0.000000 0.000001 0.000003 0.000000 0.000001 0.000001 0.000001 -0.000001 -0.000000 -0.000001 0.000000 
-2.738823 46.103920 7.805159 14.624166 -73.586949 14.085122 0.000000 -0.000001 0.000000 -68.693248 -34.412815 60.658883 80.341630 -4.938085 5.176935 20.653099 -4.744648 -44.036159 0.000000 -0.000001 -0.000000 0.000001 -0.000003 0.000003 -125.152575 14.609127 -20.394277 144.534972 16.086069 0.320779 2.038881 -1.460344 -4.404439 0.000000 -0.000000 -0.000000 -0.000001 -0.000001 -0.000001 15.375885 -10.823585 -10.343978 0.586805 -5.666133 -4.176724 0.671413 -5.699515 -4.070743 0.697653 2.872155 2.125777 0.697637 2.872160 2.125789 -0.000001 0.000000 -0.000000 0.697583 2.872131 2.125787 0.697695 2.872198 2.125775 0.000000 0.000000 0.000001 -0.000001 0.000000 -0.000000 11.204407 -44.683087 43.462573 -95.880959 10.785671 -37.203999 -63.979850 -40.520142 -53.153847 -5.142808 -26.855146 -19.392551 17.227643 17.613472 -11.396942 17.091210 14.422361 25.539524 0.000001 -0.000001 -0.000001 0.219069 -1.621418 -97.153929 2.207766 -1.384316 -60.043845 -0.000004 -0.000001 0.000000 0.577719 1.809800 -112.124973 5.828214 -3.595961 -38.340468 0.000002 -0.000002 -0.000003 -4.289155 9.550782 -109.283191 2.175299 0.917411 -36.752025 -0.000001 -0.000000 -0.000005 -7.966910 16.523809 -95.185236 0.018658 0.020246 -66.820212 -0.000000 -0.000004 0.000004 -0.000001 0.000001 -0.000000 -0.000001 0.000001 -0.000000 -0.000002 0.000001 0.000000 -0.000000 0.000000 -0.000000 -0.000000 0.000000 -0.000000 -0.000000 0.000000 -0.000000 -0.000000 -0.000000 -0.000000 29.548413 37.044340 -64.665485 -71.696489 12.391917 6.193196 41.262785 75.734107 -40.631160 -5.588646 -14.862900 -34.752494 9.347164 2.810554 -11.364525 16.169047 -43.266007 15.843573 0.000003 0.000000 -0.000004 17.076801 -0.396568 31.924342 -0.204403 -0.284219 112.811564 -0.000001 0.000003 0.000000 9.205490 -5.035877 102.738094 0.014975 -0.019179 61.018526 0.000001 0.000003 -0.000004 5.569147 -8.935208 107.329080 0.547977 -0.005761 41.263700 0.000001 0.000003 -0.000002 6.511274 -17.148274 98.228024 0.007400 -0.015742 43.845747 0.000003 -0.000000 -0.000001 -0.000001 0.000000 -0.000000 -0.000001 -0.000001 0.000000 -0.000001 -0.000000 0.000000 0.000000 0.000000 -0.000001 -0.000000 0.000000 0.000001 0.000000 0.000000 -0.000001 -0.000000 -0.000000 0.000001 0.000001 -0.000000 -0.000000 0.000001 -0.000000 -0.000000 0.000001 -0.000000 -0.000000 0.000001 -0.000000 -0.000000 0.000001 -0.000000 -0.000000 0.000001 -0.000000 -0.000000 0.000001 -0.000000 -0.000000 -0.000001 0.000000 -0.000000 0.000000 -0.000001 0.000000 
-2.721174 46.105164 7.799292 14.632435 -73.540394 14.081193 -0.000000 0.000000 -0.000000 -68.806923 -34.415759 60.620203 80.301974 -4.950983 5.163524 20.715976 -4.761780 -43.974944 -0.000000 -0.000001 -0.000000 -0.000003 0.000000 -0.000004 -125.118178 14.622467 -20.392102 144.532308 16.085189 0.322784 1.977699 -1.456151 -4.375468 0.000002 -0.000001 0.000000 0.000001 -0.000000 0.000000 15.380094 -10.824036 -10.342582 0.587240 -5.666249 -4.177576 0.671711 -5.699478 -4.071617 0.695303 2.870262 2.127868 0.695312 2.870287 2.127860 0.000000 0.000000 0.000002 0.695375 2.870260 2.127869 0.695166 2.870231 2.127877 0.000000 0.000000 0.000001 0.000000 0.000000 0.000001 11.205730 -44.693203 43.470456 -95.713708 10.659878 -37.239267 -64.106141 -40.323781 -53.196341 -5.086981 -27.022238 -19.367842 17.227634 17.613470 -11.396933 17.091208 14.422368 25.539529 0.000001 -0.000001 -0.000001 0.219070 -1.621416 -97.153929 2.207766 -1.384314 -60.043838 0.000003 -0.000002 -0.000000 0.577715 1.809800 -112.124973 5.828214 -3.595960 -38.340468 0.000001 -0.000001 0.000000 -4.289158 9.550781 -109.283184 2.175299 0.917415 -36.752032 -0.000002 0.000001 -0.000002 -7.966909 16.523810 -95.185236 0.018659 0.020245 -66.820212 -0.000002 -0.000003 0.000003 0.000003 -0.000001 -0.000000 0.000003 -0.000001 -0.000000 0.000002 -0.000001 -0.000000 -0.000000 0.000001 -0.000000 -0.000000 0.000001 -0.000000 -0.000000 0.000001 -0.000000 -0.000000 0.000001 -0.000000 29.439710 36.958321 -64.512646 -71.757339 12.396446 6.305891 41.882508 75.701992 -41.201412 -5.634804 -14.907190 -34.750360 9.347163 2.810555 -11.364519 16.169054 -43.266001 15.843566 -0.000001 -0.000001 -0.000004 17.076800 -0.396564 31.924345 -0.204404 -0.284219 112.811564 -0.000001 0.000002 0.000003 9.205486 -5.035875 102.738094 0.014970 -0.019180 61.018526 0.000001 -0.000001 0.000000 5.569136 -8.935206 107.329074 0.547978 -0.005761 41.263703 -0.000000 -0.000001 -0.000001 6.511271 -17.148266 98.228024 0.007402 -0.015736 43.845747 -0.000005 0.000001 0.000002 -0.000005 -0.000001 0.000000 -0.000005 -0.000000 0.000000 -0.000005 -0.000001 0.000000 -0.000000 -0.000001 -0.000000 -0.000000 -0.000002 -0.000000 -0.000000 -0.000001 -0.000000 -0.000000 -0.000002 -0.000000 0.000001 -0.000000 -0.000001 0.000001 -0.000000 -0.000001 0.000001 -0.000000 -0.000001 0.000001 -0.000000 -0.000001 0.000001 -0.000000 -0.000001 0.000001 -0.000000 -0.000001 0.000001 -0.000000 -0.000001 -0.000001 -0.000000 -0.000001 -0.000000 0.000000 -0.000000 
